# AST/ASF file generated using VICON BodyLanguage
# -----------------------------------------------
:version 1.10
:name VICON
:units
  mass 1.0
  length 0.45
  angle deg
:documentation
   .ast/.asf automatically generated from VICON data using
   VICON BodyBuilder and BodyLanguage model FoxedUp or BRILLIANT.MOD
:root
   order TX TY TZ RX RY RZ
   axis XYZ
   position 0 0 0  
   orientation 0 0 0 
:bonedata
  begin
     id 1 
     name lhipjoint
     direction 0.693937 -0.600361 0.397515 
     length 2.37164 
     axis 0 0 0  XYZ
  end
  begin
     id 2 
     name lfemur
     direction 0.34202 -0.939693 0  
     length 6.18497  
     axis 0 0 20  XYZ
    dof rx ry rz
    limits (-160.0 20.0)
           (-70.0 70.0)
           (-60.0 70.0)
  end
  begin
     id 3 
     name ltibia
     direction 0.34202 -0.939693 0   
     length 6.91601   
     axis 0 0 20   XYZ
    dof rx
    limits (-10.0 170.0)
  end
  begin
     id 4 
     name lfoot
     direction 0.0978718 -0.2689 0.958182   
     length 1.81453   
     axis -90 7.62852e-016 20   XYZ
    dof rx rz
    limits (-45.0 90.0)
           (-70.0 20.0)
  end
  begin
     id 5 
     name ltoes
     direction 1.53569e-011 -4.21951e-011 1   
     length 0.912052   
     axis -90 7.62852e-016 20   XYZ
    dof rx
    limits (-90.0 20.0)
  end
  begin
     id 6 
     name rhipjoint
     direction -0.643996 -0.637876 0.422354   
     length 2.23216  
     axis 0 0 0  XYZ 
  end
  begin
     id 7 
     name rfemur
     direction -0.34202 -0.939693 0   
     length 6.15404   
     axis 0 0 -20   XYZ
    dof rx ry rz
    limits (-160.0 20.0)
           (-70.0 70.0)
           (-70.0 60.0)
  end
  begin
     id 8 
     name rtibia
     direction -0.34202 -0.939693 0   
     length 6.86744   
     axis 0 0 -20   XYZ
    dof rx
    limits (-10.0 170.0)
 end
 begin
     id 9 
     name rfoot
     direction -0.118701 -0.326127 0.937844   
     length 1.9243  
     axis -90 -7.62852e-016 -20   XYZ
    dof rx rz
    limits (-45.0 90.0)
           (-20.0 70.0)
  end
  begin
     id 10 
     name rtoes
     direction -1.5356e-011 -4.2181e-011 1   
     length 0.958865   
     axis -90 -7.62852e-016 -20   XYZ
    dof rx
    limits (-90.0 20.0)
  end
  begin
     id 11 
     name lowerback
     direction 0.0310826 0.968686 -0.246334   
     length 2.00021   
     axis 0 0 0   XYZ
    dof rx ry rz
    limits (-20.0 45.0)
           (-30.0 30.0)
           (-30.0 30.0)
  end
  begin
     id 12 
     name upperback
     direction -0.0152834 0.999474 -0.0286152   
     length 2.03728   
     axis 0 0 0   XYZ
    dof rx ry rz
    limits (-20.0 45.0)
           (-30.0 30.0)
           (-30.0 30.0)
  end
  begin
     id 13 
     name thorax
     direction -0.0323701 0.996236 0.0804149   
     length 2.16   
     axis 0 0 0   XYZ
    dof rx ry rz
    limits (-20.0 45.0)
           (-30.0 30.0)
           (-30.0 30.0)
  end
  begin
     id 14 
     name lowerneck
     direction 0.0307935 0.982251 0.185027   
     length 1.43558   
     axis 0 0 0   XYZ
    dof rx ry rz
    limits (-20.0 45.0)
           (-30.0 30.0)
           (-30.0 30.0)
  end
  begin
     id 15 
     name upperneck
     direction -0.0927153 0.994775 0.0427454   
     length 1.44603   
     axis 0 0 0   XYZ
    dof rx ry rz
    limits (-20.0 45.0)
           (-30.0 30.0)
           (-30.0 30.0)
  end
  begin
     id 16
     name head
     direction -0.0341265 0.999406 -0.00472033  
     length 1.45931  
     axis 0 0 0   XYZ
    dof rx ry rz
    limits (-20.0 45.0)
           (-30.0 30.0)
           (-30.0 30.0)
  end
  begin
     id 17 
     name lclavicle
     direction 0.820755 0.555306 -0.134151  
     length 2.66075  
     axis 0 0 0   XYZ
    dof ry rz
    limits (-20.0 10.0)
           (0.0 20.0)
  end
  begin
     id 18 
     name lhumerus
     direction 1 -4.48971e-011 5.24853e-027   
     length 5.0546   
     axis -180 -30 -90   XYZ
    dof rx ry rz
    limits (-60.0 90.0)
           (-90.0 90.0)
           (-90.0 90.0)
  end
  begin
     id 19
     name lradius
     direction 1 -4.48971e-011 2.76575e-028   
     length 3.39013   
     axis -180 -30 -90   XYZ
    dof rx
    limits (-10.0 170.0)
  end
  begin
     id 20
     name lwrist
     direction 1 -4.48939e-011 -2.27826e-027   
     length 1.69507   
     axis 2.17013e-015 90 90   XYZ
    dof ry
    limits (-180.0 0.0)
 end
  begin
     id 21 
     name lhand
     direction 1 -4.49009e-011 -4.55652e-027   
     length 0.572425   
     axis 2.90745e-015 90 90   XYZ
    dof rx rz
    limits (-90.0 90.0)
           (-45.0 45.0)
  end
  begin
     id 22 
     name lfingers
     direction 1 -4.48955e-011 -9.11303e-027   
     length 0.461504   
     axis 5.81489e-015 90 90   XYZ
    dof rx
    limits (0.0 90.0)
  end
  begin
     id 23
     name lthumb
     direction 0.707107 -6.34929e-011 0.707107   
     length 0.66263   
     axis -90 45 2.85299e-015   XYZ
    dof rx rz
    limits (-45.0 45.0)
           (-45.0 45.0)
  end
  begin
     id 24 
     name rclavicle
     direction -0.754477 0.632921 -0.173712   
     length 2.73081  
     axis 0 0 0   XYZ 
    dof ry rz
    limits (-10.0 20.0)
           (-20.0 0.0)
  end
  begin
     id 25 
     name rhumerus
     direction -1 -4.48969e-011 5.1496e-027  
     length 5.0701   
     axis -180 30 90   XYZ
    dof rx ry rz
    limits (-90.0 60.0)
           (-90.0 90.0)
           (-90.0 90.0)
  end
  begin
     id 26 
     name rradius
     direction -1 -4.48967e-011 -7.15624e-028   
     length 3.14957   
     axis -180 30 90   XYZ
    dof rx
    limits (-10.0 170.0)
  end
  begin
     id 27 
     name rwrist
     direction -1 -4.48938e-011 -2.27826e-027   
     length 1.57479   
     axis 2.17013e-015 -90 -90   XYZ
    dof ry
    limits (-180.0 0.0)
  end
  begin
     id 28
     name rhand
     direction -1 -4.49008e-011 -4.55652e-027   
     length 0.718191   
     axis 2.90745e-015 -90 -90   XYZ
    dof rx rz
    limits (-90.0 90.0)
           (-45.0 45.0)
  end
  begin
     id 29
     name rfingers
     direction -1 -4.48953e-011 -9.11303e-027   
     length 0.579024   
     axis 5.81489e-015 -90 -90   XYZ
    dof rx
    limits (0.0 90.0)
  end
  begin
     id 30
     name rthumb
     direction -0.707107 -6.34937e-011 0.707107   
     length 0.831366   
     axis -90 -45 -2.85299e-015   XYZ
    dof rx rz
    limits (-45.0 45.0)
           (-45.0 45.0)
  end
:hierarchy
  begin
    root lhipjoint rhipjoint lowerback
    lhipjoint lfemur
    lfemur ltibia
    ltibia lfoot
    lfoot ltoes
    rhipjoint rfemur
    rfemur rtibia
    rtibia rfoot
    rfoot rtoes
    lowerback upperback
    upperback thorax
    thorax lowerneck lclavicle rclavicle
    lowerneck upperneck
    upperneck head
    lclavicle lhumerus
    lhumerus lradius
    lradius lwrist
    lwrist lhand lthumb
    lhand lfingers
    rclavicle rhumerus
    rhumerus rradius
    rradius rwrist
    rwrist rhand rthumb
    rhand rfingers
  end

#!OML:ASF H:\Male1\Project 1\Capture day 1\Session 1\Male1.ASF
:FULLY-SPECIFIED
:DEGREES
88
root -23.6152 14.1826 3.45658 184.176 -0.250656 -182.782
lowerback 18.024 1.32761 -3.87455
upperback 7.47679 -0.312469 -1.96225
thorax -2.10374 -0.755875 0.202879
lowerneck -15.0224 -2.69711 -2.06009
upperneck 6.62778 -4.18692 7.70231
head 4.6444 -1.69773 2.37547
rclavicle 1.51076e-014 4.73108e-014
rhumerus -33.8475 15.3047 -91.4576
rradius 63.2371
rwrist -30.3078
rhand -22.7174 4.75439
rfingers 7.12502
rthumb 3.716 -25.193
lclavicle 1.51076e-014 4.73108e-014
lhumerus -29.0347 -8.2054 77.7042
lradius 49.5547
lwrist 15.314
lhand -30.7373 11.4399
lfingers 7.12502
lthumb -4.0295 41.3816
rfemur -36.8251 2.19122 22.9213
rtibia 65.8646
rfoot -26.7442 -23.197
rtoes -24.336
lfemur -28.0515 -2.26195 -20.0938
ltibia 50.9412
lfoot -26.0902 10.7235
ltoes -25.4737
89
root -23.536 14.0691 3.4508 184.043 -0.286034 -183.5
lowerback 18.9461 1.46354 -4.52278
upperback 7.71361 -0.401713 -1.9614
thorax -2.32361 -0.855028 0.591114
lowerneck -15.1755 -2.82435 -1.84484
upperneck 6.19921 -4.33772 7.37967
head 4.53051 -1.79406 2.22649
rclavicle -1.98785e-016 -6.75868e-015
rhumerus -32.408 14.8987 -91.0689
rradius 63.3095
rwrist -31.4572
rhand -22.5538 4.84274
rfingers 7.12502
rthumb 3.87401 -25.1018
lclavicle -1.98785e-016 -6.75868e-015
lhumerus -27.369 -6.66208 77.4155
lradius 47.8068
lwrist 14.9342
lhand -30.2233 11.7558
lfingers 7.12502
lthumb -3.53313 41.7063
rfemur -38.2371 1.3725 22.7162
rtibia 68.4599
rfoot -26.9494 -22.8626
rtoes -23.0551
lfemur -28.8924 -2.08229 -20.4948
ltibia 52.8305
lfoot -26.3954 10.8818
ltoes -27.4291
90
root -23.4598 13.9592 3.42912 184.314 -0.250297 -183.976
lowerback 19.263 1.4483 -4.78417
upperback 7.79689 -0.526294 -1.96572
thorax -2.39121 -0.936979 0.761531
lowerneck -15.3154 -2.82953 -1.49858
upperneck 5.77588 -4.32274 6.79113
head 4.39762 -1.82059 1.98927
rclavicle -7.95139e-015 -2.54444e-014
rhumerus -30.9209 14.7979 -90.6003
rradius 63.0026
rwrist -32.3616
rhand -22.4463 5.1938
rfingers 7.12502
rthumb 3.97783 -24.7488
lclavicle -7.95139e-015 -2.54444e-014
lhumerus -25.6805 -5.03498 77.0165
lradius 45.7675
lwrist 15.0875
lhand -29.3425 11.1571
lfingers 7.12502
lthumb -2.68246 41.12
rfemur -40.0421 0.472108 22.7436
rtibia 71.0005
rfoot -26.8148 -22.4675
rtoes -22.1791
lfemur -30.1354 -1.82842 -20.651
ltibia 54.685
lfoot -26.5892 11.2186
ltoes -29.5986
91
root -23.3655 13.85 3.40623 184.683 0.133924 -184.084
lowerback 19.4825 1.46631 -4.94516
upperback 7.72608 -0.547422 -1.91239
thorax -2.57702 -0.945729 0.916486
lowerneck -15.5951 -2.83469 -1.23632
upperneck 5.47375 -4.31732 6.29647
head 4.32926 -1.8447 1.79275
rclavicle -3.97569e-016 7.15625e-015
rhumerus -29.4688 14.9862 -90.0418
rradius 62.8067
rwrist -33.3326
rhand -22.3479 5.0711
rfingers 7.12502
rthumb 4.07283 -24.8697
lclavicle -3.97569e-016 7.15625e-015
lhumerus -24.0361 -3.26584 76.3839
lradius 43.4858
lwrist 15.592
lhand -28.4621 10.196
lfingers 7.12502
lthumb -1.83224 40.1679
rfemur -41.9282 0.00661155 23.2523
rtibia 73.4588
rfoot -26.0908 -22.4499
rtoes -23.4424
lfemur -31.4215 -0.916574 -20.3238
ltibia 56.474
lfoot -26.9714 11.2804
ltoes -31.2813
92
root -23.2644 13.7481 3.3792 184.799 0.377204 -184.426
lowerback 19.924 -0.382533 -5.87466
upperback 7.55137 -0.198272 -2.17496
thorax -2.88587 0.475873 1.0285
lowerneck -15.719 -2.97791 -0.969232
upperneck 5.04808 -4.15691 5.85848
head 4.19428 -1.63353 1.64043
rclavicle 1.80894e-014 3.02153e-014
rhumerus -28.2713 15.2774 -89.3347
rradius 63.0473
rwrist -34.1452
rhand -22.3413 4.12672
rfingers 7.12502
rthumb 4.07924 -25.814
lclavicle 1.80894e-014 3.02153e-014
lhumerus -22.5825 -1.79327 75.6427
lradius 41.2424
lwrist 15.2289
lhand -28.2885 9.98606
lfingers 7.12502
lthumb -1.66457 39.9593
rfemur -43.5327 -0.662892 23.48
rtibia 75.8783
rfoot -25.2458 -22.2024
rtoes -24.4453
lfemur -32.276 -0.142991 -20.2216
ltibia 58.0415
lfoot -27.5011 11.1575
ltoes -32.3039
93
root -23.1557 13.6514 3.34519 184.958 0.691107 -185.04
lowerback 20.145 -0.379574 -6.26445
upperback 7.37779 -0.317281 -2.41225
thorax -3.17116 0.421017 1.01814
lowerneck -15.6355 -3.03497 -0.992204
upperneck 4.47074 -4.16873 5.70554
head 3.99932 -1.65605 1.59963
rclavicle -1.27222e-014 -3.18055e-014
rhumerus -27.4938 15.638 -88.4868
rradius 63.8985
rwrist -34.5344
rhand -22.547 3.09724
rfingers 7.12502
rthumb 3.88058 -26.8472
lclavicle -1.27222e-014 -3.18055e-014
lhumerus -21.5015 -1.30913 74.9723
lradius 39.4365
lwrist 13.3077
lhand -30.7007 11.7611
lfingers 7.12502
lthumb -3.99411 41.7034
rfemur -45.1801 -1.29602 23.3414
rtibia 78.1869
rfoot -24.2804 -21.3251
rtoes -24.4182
lfemur -32.9773 0.710491 -20.3877
ltibia 59.3143
lfoot -27.9444 10.7706
ltoes -32.8256
94
root -23.0377 13.5652 3.29916 184.965 0.893006 -185.564
lowerback 20.3532 -0.436881 -6.43777
upperback 7.24066 -0.465795 -2.68221
thorax -3.41469 0.357954 0.857926
lowerneck -15.9743 -3.04831 -1.27575
upperneck 4.30752 -4.11624 5.79872
head 4.0084 -1.62128 1.67607
rclavicle -1.90833e-014 -4.05521e-014
rhumerus -27.2604 16.3339 -87.4087
rradius 65.7167
rwrist -35.3482
rhand -22.7733 2.11173
rfingers 7.12502
rthumb 3.66201 -27.8366
lclavicle -1.90833e-014 -4.05521e-014
lhumerus -20.62 -0.618901 73.9019
lradius 38.3562
lwrist 10.9127
lhand -30.1585 13.1286
lfingers 7.12502
lthumb -3.47053 43.0801
rfemur -46.3382 -1.96244 23.2244
rtibia 80.1514
rfoot -23.3701 -19.8936
rtoes -24.4872
lfemur -33.2791 1.62231 -20.3552
ltibia 60.2109
lfoot -28.4498 9.44978
ltoes -31.4844
95
root -22.9082 13.5091 3.23936 184.965 1.24218 -186.137
lowerback 20.3469 -0.443237 -6.67808
upperback 7.08269 -0.557912 -2.9667
thorax -3.57333 0.3154 0.708463
lowerneck -16.1828 -3.03422 -1.01996
upperneck 4.02568 -4.0514 4.85253
head 3.92139 -1.6434 1.34775
rclavicle -1.15295e-014 -1.82882e-014
rhumerus -27.2955 17.328 -85.8623
rradius 68.3549
rwrist -35.5675
rhand -22.2688 0.877157
rfingers 7.12502
rthumb 4.14916 -29.0622
lclavicle -1.15295e-014 -1.82882e-014
lhumerus -20.3706 -0.188347 72.6605
lradius 38.3252
lwrist 9.20077
lhand -28.3453 13.0746
lfingers 7.12502
lthumb -1.71945 43.0475
rfemur -46.9954 -2.50424 23.0664
rtibia 81.4744
rfoot -22.6239 -18.5226
rtoes -24.5045
lfemur -33.2179 2.57039 -20.2797
ltibia 60.6364
lfoot -29.0228 7.39693
ltoes -28.0232
96
root -22.7557 13.4862 3.16167 184.959 1.52793 -186.677
lowerback 20.2269 -0.478835 -7.11602
upperback 6.79889 -0.755412 -3.18806
thorax -3.79766 0.20992 0.761344
lowerneck -16.004 -2.89919 -1.67711
upperneck 3.63995 -3.74123 5.2262
head 3.7864 -1.48366 1.59702
rclavicle 1.68967e-014 3.49861e-014
rhumerus -27.8146 18.809 -84.0911
rradius 71.4684
rwrist -35.4325
rhand -22.0345 -0.110411
rfingers 7.12502
rthumb 4.37542 -30.0452
lclavicle 1.68967e-014 3.49861e-014
lhumerus -21.1499 -0.142051 71.2774
lradius 39.6737
lwrist 8.52445
lhand -28.7983 13.4756
lfingers 7.12502
lthumb -2.15695 43.4444
rfemur -47.0591 -2.88527 23.1854
rtibia 81.8429
rfoot -22.4001 -17.879
rtoes -24.2552
lfemur -32.7909 3.9283 -20.0907
ltibia 60.4699
lfoot -29.0953 5.48912
ltoes -26.0523
97
root -22.5814 13.4906 3.07101 184.813 1.69785 -186.79
lowerback 19.9164 -0.690975 -7.45655
upperback 6.6191 -1.12972 -3.35193
thorax -3.80014 0.0132669 0.861126
lowerneck -15.9486 -2.65344 -1.9092
upperneck 3.418 -3.3561 5.32725
head 3.70221 -1.29235 1.69768
rclavicle 1.17283e-014 1.66979e-014
rhumerus -28.7627 20.5478 -82.4568
rradius 74.5781
rwrist -33.7688
rhand -21.0607 -1.67766
rfingers 7.12502
rthumb 5.31573 -31.591
lclavicle 1.17283e-014 1.66979e-014
lhumerus -23.1881 -0.322686 69.5293
lradius 43.2479
lwrist 10.7103
lhand -27.9934 14.0714
lfingers 7.12502
lthumb -1.37949 44.0467
rfemur -45.6552 -3.73316 24.1323
rtibia 80.8377
rfoot -23.2513 -17.5763
rtoes -23.8124
lfemur -31.8584 5.00418 -19.3888
ltibia 59.6656
lfoot -28.5577 5.01775
ltoes -27.526
98
root -22.3683 13.5862 2.94764 184.695 1.90067 -185.622
lowerback 19.1187 -1.10418 -6.65418
upperback 6.47551 -1.54937 -3.43648
thorax -3.5567 -0.229731 0.411083
lowerneck -15.3237 -2.36012 -2.19563
upperneck 2.95932 -2.94554 6.34055
head 3.47483 -1.04531 2.09347
rclavicle 5.96354e-015 -1.43125e-014
rhumerus -30.7542 23.4635 -81.2589
rradius 78.2098
rwrist -33.2169
rhand -22.3768 -0.996918
rfingers 7.12502
rthumb 4.04488 -30.9383
lclavicle 5.96354e-015 -1.43125e-014
lhumerus -25.9651 -0.901809 67.2058
lradius 47.8234
lwrist 14.462
lhand -28.6653 15.8718
lfingers 7.12502
lthumb -2.02847 45.8419
rfemur -42.9732 -4.02356 26.6326
rtibia 77.7034
rfoot -23.9322 -18.3469
rtoes -21.6965
lfemur -30.183 6.01206 -17.1347
ltibia 57.8863
lfoot -27.6635 4.90121
ltoes -29.3778
99
root -22.1384 13.726 2.81582 184.442 2.46305 -185.26
lowerback 18.2071 -1.41724 -6.64483
upperback 6.29119 -1.95417 -4.02416
thorax -3.28087 -0.444015 -0.143053
lowerneck -15.0522 -1.87338 -1.13952
upperneck 3.32624 -2.48252 5.61817
head 3.49895 -0.849511 1.73567
rclavicle -1.70955e-014 1.35174e-014
rhumerus -32.5236 25.9739 -80.9871
rradius 80.8135
rwrist -31.8505
rhand -24.0833 -2.15181
rfingers 7.12502
rthumb 2.39689 -32.1181
lclavicle -1.70955e-014 1.35174e-014
lhumerus -29.2897 -1.83863 64.5204
lradius 52.8262
lwrist 18.83
lhand -28.2331 17.1601
lfingers 7.12502
lthumb -1.61106 47.1337
rfemur -40.0216 -4.97571 28.6516
rtibia 74.1421
rfoot -24.1002 -19.2542
rtoes -19.699
lfemur -27.7852 7.12809 -15.7475
ltibia 55.2437
lfoot -26.3692 4.39935
ltoes -29.48
100
root -21.8743 13.942 2.66535 184.156 3.23914 -185.964
lowerback 17.0071 -1.44634 -7.97586
upperback 5.97519 -2.14653 -4.89701
thorax -2.94041 -0.541106 -0.305623
lowerneck -13.1675 -1.69992 -0.937805
upperneck 2.18931 -2.24986 5.98579
head 3.14981 -0.77004 2.00778
rclavicle 1.98785e-014 3.81667e-014
rhumerus -36.1287 27.4888 -81.2104
rradius 83.4016
rwrist -29.5463
rhand -26.9745 -0.767874
rfingers 7.12502
rthumb -0.395444 -30.7473
lclavicle 1.98785e-014 3.81667e-014
lhumerus -32.6682 -3.11531 61.9018
lradius 57.4916
lwrist 22.1627
lhand -29.6004 18.8258
lfingers 7.12502
lthumb -2.93157 48.7854
rfemur -36.7814 -6.29225 29.2538
rtibia 69.5433
rfoot -23.7322 -18.6902
rtoes -14.3777
lfemur -24.667 7.59265 -15.5396
ltibia 51.5577
lfoot -24.3649 4.95417
ltoes -29.8162
101
root -21.5968 14.1976 2.50967 183.426 3.8362 -184.861
lowerback 16.1549 -1.64598 -7.42305
upperback 5.91114 -2.26243 -5.47111
thorax -2.60653 -0.600789 -1.21082
lowerneck -11.5927 -1.49638 -1.08725
upperneck 1.69542 -1.95858 7.17655
head 2.6999 -0.606452 2.44736
rclavicle -7.95139e-015 -5.88403e-014
rhumerus -39.3866 28.9267 -81.8759
rradius 85.1768
rwrist -27.3678
rhand -27.7108 1.4162
rfingers 7.12502
rthumb -1.10663 -28.5607
lclavicle -7.95139e-015 -5.88403e-014
lhumerus -35.5455 -4.17124 59.3286
lradius 61.3085
lwrist 24.1837
lhand -30.7177 19.4819
lfingers 7.12502
lthumb -4.01056 49.4239
rfemur -32.4119 -8.29201 31.6342
rtibia 64.2528
rfoot -22.5692 -18.109
rtoes -9.23188
lfemur -20.8208 7.11065 -13.292
ltibia 47.5707
lfoot -20.7607 5.91877
ltoes -28.4846
